<?xml version="1.0" encoding="UTF-8"?>
<!DOCTYPE svg PUBLIC "-//W3C//DTD SVG 1.1//EN" "http://www.w3.org/Graphics/SVG/1.1/DTD/svg11.dtd">
<svg xmlns="http://www.w3.org/2000/svg" version="1.1" width="96px" height="96px" style="shape-rendering:geometricPrecision; text-rendering:geometricPrecision; image-rendering:optimizeQuality; fill-rule:evenodd; clip-rule:evenodd" xmlns:xlink="http://www.w3.org/1999/xlink">
<g><path style="opacity:0.906" fill="#fff200" d="M 46.5,7.5 C 47.3764,7.36912 48.0431,7.70245 48.5,8.5C 52.5,16.5 56.5,24.5 60.5,32.5C 70.1667,34.5 79.8333,36.5 89.5,38.5C 83.4833,45.3503 76.9833,51.6836 70,57.5C 70.5055,66.5424 71.6722,75.5424 73.5,84.5C 73.1667,85.5 72.8333,86.5 72.5,87.5C 64.0094,83.4218 55.6761,79.0884 47.5,74.5C 39.3239,79.0884 30.9906,83.4218 22.5,87.5C 22.1667,86.5 21.8333,85.5 21.5,84.5C 23.3278,75.5424 24.4945,66.5424 25,57.5C 18.0167,51.6836 11.5167,45.3503 5.5,38.5C 15.1667,36.5 24.8333,34.5 34.5,32.5C 38.784,24.2666 42.784,15.9333 46.5,7.5 Z M 46.5,27.5 C 47.3764,27.3691 48.0431,27.7025 48.5,28.5C 50.0991,32.8648 52.0991,37.0314 54.5,41C 59.7919,42.1622 65.1252,43.1622 70.5,44C 67,47.5 63.5,51 60,54.5C 60.0553,60.1115 60.8887,65.6115 62.5,71C 62.1667,71.1667 61.8333,71.3333 61.5,71.5C 57.107,68.6368 52.4404,66.3035 47.5,64.5C 42.3631,66.7447 37.3631,68.9114 32.5,71C 34.1113,65.6115 34.9447,60.1115 35,54.5C 31.5,51 28,47.5 24.5,44C 29.8958,43.2772 35.2291,42.2772 40.5,41C 43.1961,36.7774 45.1961,32.2774 46.5,27.5 Z"/></g>
</svg>
